<mxfile host="app.diagrams.net" agent="Mozilla/5.0 (Macintosh; Intel Mac OS X 10_15_7) AppleWebKit/537.36 (KHTML, like Gecko) Chrome/129.0.0.0 Safari/537.36" version="24.7.17">
  <diagram name="第 1 页" id="QZKxXbMCpopunssOTnGp">
    <mxGraphModel dx="1218" dy="706" grid="0" gridSize="10" guides="1" tooltips="1" connect="1" arrows="1" fold="1" page="1" pageScale="1" pageWidth="827" pageHeight="1169" background="#9AC7BF" math="0" shadow="0">
      <root>
        <mxCell id="0" />
        <mxCell id="1" parent="0" />
        <mxCell id="8gHsthRCVajcvx1KoRRS-8" style="edgeStyle=orthogonalEdgeStyle;rounded=0;orthogonalLoop=1;jettySize=auto;html=1;entryX=0;entryY=0.5;entryDx=0;entryDy=0;" edge="1" parent="1" source="8gHsthRCVajcvx1KoRRS-1" target="8gHsthRCVajcvx1KoRRS-3">
          <mxGeometry relative="1" as="geometry" />
        </mxCell>
        <mxCell id="8gHsthRCVajcvx1KoRRS-1" value="业务系统" style="rounded=0;whiteSpace=wrap;html=1;" vertex="1" parent="1">
          <mxGeometry x="100" y="470" width="110" height="30" as="geometry" />
        </mxCell>
        <mxCell id="8gHsthRCVajcvx1KoRRS-10" style="edgeStyle=orthogonalEdgeStyle;rounded=0;orthogonalLoop=1;jettySize=auto;html=1;entryX=0;entryY=0.5;entryDx=0;entryDy=0;" edge="1" parent="1" source="8gHsthRCVajcvx1KoRRS-2" target="8gHsthRCVajcvx1KoRRS-3">
          <mxGeometry relative="1" as="geometry" />
        </mxCell>
        <mxCell id="8gHsthRCVajcvx1KoRRS-2" value="业务系统" style="rounded=0;whiteSpace=wrap;html=1;" vertex="1" parent="1">
          <mxGeometry x="100" y="540" width="110" height="30" as="geometry" />
        </mxCell>
        <mxCell id="8gHsthRCVajcvx1KoRRS-7" value="" style="edgeStyle=orthogonalEdgeStyle;rounded=0;orthogonalLoop=1;jettySize=auto;html=1;" edge="1" parent="1" source="8gHsthRCVajcvx1KoRRS-3" target="8gHsthRCVajcvx1KoRRS-6">
          <mxGeometry relative="1" as="geometry" />
        </mxCell>
        <mxCell id="8gHsthRCVajcvx1KoRRS-3" value="会计引擎" style="rounded=0;whiteSpace=wrap;html=1;" vertex="1" parent="1">
          <mxGeometry x="294" y="500" width="136" height="40" as="geometry" />
        </mxCell>
        <mxCell id="8gHsthRCVajcvx1KoRRS-6" value="星瀚接口平台" style="whiteSpace=wrap;html=1;rounded=0;" vertex="1" parent="1">
          <mxGeometry x="510" y="500" width="122" height="40" as="geometry" />
        </mxCell>
      </root>
    </mxGraphModel>
  </diagram>
</mxfile>
